<svg width="130" height="70" xmlns="http://www.w3.org/2000/svg">
 <g>
  <path d="M41.75326,38.05626C41.25961,35.68551 38.08726,36.32616 38.454,38.66751C44.14579,56.89876 12.31504,52.84273 10.07733,47.13085C8.18627,42.38618 45.53686,24.75391 123.84821,19.97984C128.58358,19.51558 129.25828,18.00988 124.33721,18.28843C46.96981,22.12469 3.71401,40.81701 7.42802,47.68794C12.72049,56.78729 47.32428,59.50469 41.75326,38.05626z" stroke-width="0" fill="#FFF"/>
  <path d="M109.16924,47.49334C109.65824,48.96033 111.73603,48.25796 112.10278,47.40221C112.46952,46.54646 111.5222,45.07992 110.42196,44.71317C109.32171,44.34642 108.68024,46.02634 109.16924,47.49334z" stroke-width="0" fill="#FFF"/>
  <path d="M27.89993,44.01628C38.96237,40.45379 47.56387,38.46428 63.99854,36.13112C67.6873,35.67964 67.69367,37.04941 64.06879,37.92438C41.5064,42.17436 32.6444,44.80128 28.01943,46.55127C26.95693,46.92627 25.73727,44.64758 27.89993,44.01628z" stroke-width="0" fill="#FFF"/>
  <path d="M76.11806,34.17397C76.18549,31.00472 70.31777,31.44911 73.015,34.07892C73.68931,34.61837 73.48702,34.46361 73.48702,34.93562C73.2693,41.75586 59.53902,54.10018 53.43814,44.04651C46.27504,28.18482 102.57412,-0.6932 106.91284,9.10765C109.0887,14.5828 76.92852,32.84012 78.05957,38.30074C80.04432,45.79828 90.25059,43.53744 91.19461,48.59476C92.1714,55.76497 63.17518,59.4621 22.44536,61.52522C16.88299,61.8471 17.6998,63.41363 22.01153,63.34619C70.99845,61.66746 96.26159,57.34755 93.96028,48.03776C92.1272,41.60422 81.82326,43.33059 80.40721,38.52838C78.99116,33.72617 114.25156,15.68812 109.7391,7.55226C102.52008,-5.99672 41.56643,27.33466 51.19561,45.31355C58.54558,56.16993 74.60763,46.86703 76.11806,34.17397z" stroke-width="0" fill="#FFF"/>
 </g>
</svg>