<?xml version="1.0" encoding="utf-8"?>
<!-- Generator: Adobe Illustrator 23.0.0, SVG Export Plug-In . SVG Version: 6.00 Build 0)  -->
<svg version="1.1" id="Capa_1" xmlns="http://www.w3.org/2000/svg" xmlns:xlink="http://www.w3.org/1999/xlink" x="0px" y="0px"
	 viewBox="0 0 764.5 175.5" style="enable-background:new 0 0 764.5 175.5;" xml:space="preserve">
<style type="text/css">
	.st0{fill:#EC2928;}
	.st2{fill:#EB1D25;}
	.st3{fill:#F27C7B;}
	.st4{fill:#EF5152;}
</style>
<g>
	<g>
		<path class="st0" d="M281.7,94.5c-4.8,2.5-9.8,4.3-15,5.4s-10.5,1.7-15.9,1.7c-5.8,0-11.1-0.9-15.9-2.7c-4.9-1.8-9.1-4.4-12.6-7.8
			s-6.3-7.4-8.3-12.2c-2-4.8-3-10.1-3-16s1-11.2,3-16s4.7-8.9,8.3-12.2c3.5-3.4,7.7-6,12.6-7.8c4.9-1.8,10.2-2.7,15.9-2.7
			c5.9,0,11.3,0.7,16.3,2.1s9.3,3.9,13.1,7.3l-11.5,12.5c-2.2-2.3-4.7-4-7.5-5.2s-6.2-1.8-10.4-1.8c-3.5,0-6.6,0.6-9.4,1.8
			c-2.8,1.2-5.2,2.8-7.2,4.9s-3.6,4.6-4.6,7.6c-1.1,2.9-1.6,6.1-1.6,9.5c0,3.5,0.5,6.6,1.6,9.5s2.6,5.4,4.6,7.5s4.4,3.8,7.2,4.9
			c2.8,1.2,6,1.8,9.4,1.8c3.5,0,6.6-0.4,9.2-1.2c2.6-0.8,4.6-1.6,6.1-2.4V71h-13.2V56h28.8L281.7,94.5L281.7,94.5z"/>
		<path class="st0" d="M341.9,90.9c-2.5,3.2-5.7,5.7-9.5,7.4c-3.8,1.7-7.8,2.6-11.9,2.6c-3.9,0-7.6-0.6-11-1.9c-3.4-1.2-6.4-3-9-5.4
			c-2.5-2.3-4.5-5.1-6-8.4s-2.2-6.9-2.2-10.9s0.7-7.7,2.2-10.9c1.5-3.3,3.5-6.1,6-8.4s5.5-4.1,9-5.4s7.1-1.9,11-1.9
			c3.6,0,6.9,0.6,9.8,1.9c3,1.2,5.4,3,7.5,5.4c2,2.3,3.6,5.1,4.7,8.4s1.7,6.9,1.7,10.9v4.9h-36.1c0.6,3,2,5.4,4.1,7.1
			c2.1,1.8,4.7,2.7,7.7,2.7c2.6,0,4.7-0.6,6.5-1.7s3.3-2.6,4.6-4.4L341.9,90.9z M328.7,68.6c0.1-2.6-0.8-4.9-2.6-6.8
			c-1.8-1.9-4.1-2.8-7-2.8c-1.7,0-3.3,0.3-4.6,0.8c-1.3,0.6-2.4,1.3-3.4,2.1c-0.9,0.9-1.7,1.9-2.2,3c-0.5,1.1-0.8,2.3-0.9,3.6h20.7
			V68.6z"/>
		<path class="st0" d="M401.7,90.9c-2.5,3.2-5.7,5.7-9.5,7.4c-3.8,1.7-7.8,2.6-11.9,2.6c-3.9,0-7.6-0.6-11-1.9c-3.4-1.2-6.4-3-9-5.4
			c-2.5-2.3-4.5-5.1-6-8.4s-2.2-6.9-2.2-10.9s0.7-7.7,2.2-10.9c1.5-3.3,3.5-6.1,6-8.4s5.5-4.1,9-5.4c3.4-1.2,7.1-1.9,11-1.9
			c3.6,0,6.9,0.6,9.8,1.9c3,1.2,5.4,3,7.5,5.4c2,2.3,3.6,5.1,4.7,8.4s1.7,6.9,1.7,10.9v4.9h-36.2c0.6,3,2,5.4,4.1,7.1
			c2.1,1.8,4.7,2.7,7.7,2.7c2.6,0,4.7-0.6,6.5-1.7s3.3-2.6,4.6-4.4L401.7,90.9z M388.5,68.6c0.1-2.6-0.8-4.9-2.6-6.8
			c-1.8-1.9-4.1-2.8-7-2.8c-1.7,0-3.3,0.3-4.6,0.8c-1.3,0.6-2.4,1.3-3.4,2.1c-0.9,0.9-1.7,1.9-2.2,3c-0.5,1.1-0.8,2.3-0.9,3.6h20.7
			V68.6z"/>
		<path class="st0" d="M413.6,20.9h15.6V69l17.3-20h19.2l-20.1,22.8l20.6,27.8h-19.7L429.4,74h-0.2v25.6h-15.6L413.6,20.9
			L413.6,20.9z"/>
		<path class="st0" d="M500.1,63.9c-2.3-2.8-5.3-4.3-9.1-4.3c-1.3,0-2.6,0.3-3.9,0.9c-1.2,0.6-1.9,1.7-1.9,3.2
			c0,1.2,0.6,2.2,1.9,2.8c1.3,0.6,2.9,1.1,4.9,1.6s4.1,0.9,6.4,1.5c2.3,0.5,4.4,1.3,6.4,2.4s3.6,2.6,4.9,4.5s1.9,4.5,1.9,7.7
			c0,3.3-0.7,6-2.1,8.1s-3.2,3.8-5.5,5.1c-2.2,1.3-4.7,2.2-7.5,2.7s-5.5,0.8-8.2,0.8c-3.5,0-7.1-0.5-10.7-1.5s-6.7-2.8-9.2-5.4
			l9.5-10.5c1.5,1.8,3.1,3.2,4.8,4.1c1.8,0.9,3.8,1.4,6.2,1.4c1.8,0,3.4-0.3,4.9-0.8s2.2-1.5,2.2-2.9c0-1.3-0.6-2.3-1.9-3
			s-2.9-1.2-4.9-1.7s-4.1-0.9-6.4-1.5c-2.3-0.5-4.4-1.3-6.4-2.3s-3.6-2.5-4.9-4.4s-1.9-4.5-1.9-7.7c0-3,0.6-5.6,1.8-7.7
			c1.2-2.2,2.8-3.9,4.8-5.3s4.3-2.4,6.8-3.1c2.6-0.7,5.2-1,7.8-1c3.3,0,6.7,0.5,10.1,1.5s6.3,2.7,8.6,5.2L500.1,63.9z"/>
		<path class="st0" d="M521.7,25.9h16.2v27.5h31.6V25.9h16.2v73.7h-16.2V67.7h-31.6v31.9h-16.2V25.9z"/>
		<path class="st0" d="M647.5,99.7h-15v-6.9h-0.2c-0.6,1-1.3,1.9-2.1,2.9c-0.9,1-1.9,1.8-3.2,2.6c-1.2,0.8-2.7,1.4-4.3,1.9
			s-3.3,0.7-5.2,0.7c-4,0-7.2-0.6-9.6-1.8c-2.5-1.2-4.4-2.9-5.7-5.1c-1.4-2.2-2.3-4.7-2.7-7.6c-0.5-2.9-0.7-6.1-0.7-9.5V49h15.6
			v24.8c0,1.5,0.1,3,0.2,4.5c0.1,1.6,0.4,3,0.9,4.3s1.3,2.4,2.4,3.2c1.1,0.8,2.6,1.2,4.6,1.2s3.6-0.4,4.9-1.1
			c1.2-0.7,2.2-1.7,2.9-2.9c0.7-1.2,1.1-2.6,1.3-4.1s0.3-3.1,0.3-4.8V48.9h15.6V99.7z"/>
		<path class="st0" d="M660,20.9h15.6v33.5h0.2c1.8-2.4,4.1-4.1,6.9-5.2c2.8-1,5.8-1.5,9.1-1.5c3.6,0,6.8,0.7,9.7,2.2
			c2.8,1.5,5.3,3.5,7.2,6c2,2.5,3.5,5.4,4.6,8.6s1.6,6.6,1.6,10.2c0,3.8-0.6,7.3-1.8,10.5s-2.9,6-5.1,8.3c-2.2,2.3-4.8,4.1-7.9,5.4
			c-3.1,1.3-6.5,1.9-10.2,1.9c-1.8,0-3.5-0.2-5.1-0.7s-3.1-1.1-4.4-1.9c-1.4-0.8-2.5-1.6-3.5-2.6c-1-0.9-1.8-1.9-2.4-2.8h-0.2v6.7
			h-14.4V20.9H660z M674.4,74.4c0,3.8,1.1,6.9,3.3,9.3s5.3,3.5,9.2,3.5c4,0,7-1.2,9.2-3.5c2.2-2.4,3.3-5.4,3.3-9.3
			c0-3.8-1.1-6.9-3.3-9.3s-5.3-3.5-9.2-3.5c-4,0-7,1.2-9.2,3.5C675.5,67.4,674.4,70.5,674.4,74.4z"/>
		<path class="st0" d="M752.8,63.9c-2.3-2.8-5.3-4.3-9.1-4.3c-1.3,0-2.6,0.3-3.9,0.9c-1.2,0.6-1.9,1.7-1.9,3.2
			c0,1.2,0.6,2.2,1.9,2.8c1.3,0.6,2.9,1.1,4.9,1.6s4.1,0.9,6.4,1.5c2.3,0.5,4.4,1.3,6.4,2.4s3.6,2.6,4.9,4.5
			c1.3,1.9,1.9,4.5,1.9,7.7c0,3.3-0.7,6-2.1,8.1c-1.4,2.1-3.2,3.8-5.5,5.1c-2.2,1.3-4.7,2.2-7.5,2.7s-5.5,0.8-8.2,0.8
			c-3.5,0-7.1-0.5-10.7-1.5c-3.6-1-6.7-2.8-9.2-5.4l9.5-10.5c1.5,1.8,3.1,3.2,4.8,4.1c1.8,0.9,3.8,1.4,6.2,1.4
			c1.8,0,3.4-0.3,4.9-0.8s2.2-1.5,2.2-2.9c0-1.3-0.6-2.3-1.9-3c-1.3-0.7-2.9-1.2-4.9-1.7s-4.1-0.9-6.4-1.5c-2.3-0.5-4.4-1.3-6.4-2.3
			s-3.6-2.5-4.9-4.4c-1.3-1.9-1.9-4.5-1.9-7.7c0-3,0.6-5.6,1.8-7.7c1.2-2.2,2.8-3.9,4.8-5.3s4.3-2.4,6.8-3.1c2.6-0.7,5.2-1,7.8-1
			c3.3,0,6.7,0.5,10.1,1.5c3.4,1,6.3,2.7,8.6,5.2L752.8,63.9z"/>
	</g>
	<path class="st2" d="M0,0v128.2h48.5l60.4,40.1l0.1-40.1h44.6V0H0z M136.7,111.3H92.1L92,138.8l-39-27.5H16.9V16.1h119.8V111.3z"/>
	<g>
		<rect x="35.9" y="49.6" class="st3" width="16.3" height="16.3"/>
		<rect x="52.3" y="49.6" class="st4" width="16.3" height="16.3"/>
		<rect x="68.3" y="49.6" class="st3" width="16.3" height="16.3"/>
		<rect x="84.6" y="49.6" class="st4" width="16.3" height="16.3"/>
		<rect x="100.9" y="49.6" class="st3" width="16.3" height="16.3"/>
		<rect x="52.3" y="65.9" class="st0" width="16.3" height="16.3"/>
		<rect x="68.3" y="65.9" class="st4" width="16.3" height="16.3"/>
		<rect x="84.6" y="65.9" class="st0" width="16.3" height="16.3"/>
		<rect x="68.3" y="82.2" class="st0" width="16.3" height="16.3"/>
	</g>
</g>
</svg>
