<svg xmlns="http://www.w3.org/2000/svg" height="512" viewBox="0 0 64 64" width="512">
<path d="m24 39h16v16h-16z" fill="#dd3e46"/>
<path d="m24 27h16v4h-16z" fill="#bab59e"/>
<path d="m40 27h-16l2-10h12z" fill="#e0dabf"/>
<circle cx="32" cy="47" fill="#8aced8" r="5"/>
<path d="m28 59h-3l-1-4h4z" fill="#394d5c"/>
<path d="m28 55h4v4h-4z" fill="#143441"/>
<path d="m32 55h4v4h-4z" fill="#394d5c"/>
<path d="m39 59h-3v-4h4z" fill="#143441"/>
<path d="m26 9h12l-6-6z" fill="#394d5c"/>
<path d="m26 9h12v4h-12z" fill="#e0dabf"/>
<path d="m26 13h12v4h-12z" fill="#bab59e"/>

<path d="m6 45h6v12h-6z" fill="#dd3e46"/>
<g fill="#394d5c">
    <path d="m9 41a3 3 0 0 1 3 3v1a0 0 0 0 1 0 0h-6a0 0 0 0 1 0 0v-1a3 3 0 0 1 3-3z"/>
    <path d="m11 61h-4l-1-4h6z"/>
    <path d="m57 61h-4l-1-4h6z"/>
    <path d="m24 53h-12v-4l12-6z"/>
</g>
<path d="m52 45h6v12h-6z" fill="#dd3e46" transform="matrix(-1 0 0 -1 110 102)"/>
<path d="m52 41h6a0 0 0 0 1 0 0v1a3 3 0 0 1 -3 3 3 3 0 0 1 -3-3v-1a0 0 0 0 1 0 0z" fill="#394d5c" transform="matrix(-1 0 0 -1 110 86)"/>
<path d="m40 53h12v-4l-12-6z" fill="#394d5c"/>
<path d="m24 31h16v8h-16z" fill="#e0dabf"/>
<path d="m27 34h2v2h-2z" fill="#fff"/>
<path d="m31 34h2v2h-2z" fill="#fff"/>
<path d="m35 34h2v2h-2z" fill="#fff"/>
<path d="m19 48h2v2h-2z" fill="#000"/>
<path d="m43 48h2v2h-2z" fill="#000"/>
</svg>