<svg height="512px" viewBox="0 -4 512.00001 512" width="512px"
    xmlns="http://www.w3.org/2000/svg">
    <path d="m307.199219 460.800781h-102.398438v-8.535156c0-28.277344 22.921875-51.199219 51.199219-51.199219s51.199219 22.921875 51.199219 51.199219zm0 0" fill="#b9b9b9"/>
    <path d="m8.535156 110.933594h42.664063v-29.867188c0-11.78125-9.550781-21.332031-21.332031-21.332031s-21.332032 9.550781-21.332032 21.332031zm0 0" fill="#dd3e46"/>
    <path d="m503.464844 110.933594h-42.664063v-29.867188c0-11.78125 9.550781-21.332031 21.332031-21.332031s21.332032 9.550781 21.332032 21.332031zm0 0" fill="#dd3e46"/>
    <path d="m477.867188 324.265625h17.066406v42.667969h-17.066406zm0 0" fill="#cdcdcd"/>
    <path d="m17.066406 315.734375h17.066406v51.199219h-17.066406zm0 0" fill="#cdcdcd"/>
    <path d="m153.601562 298.667969h204.796876v110.933593h-204.796876zm0 0" fill="#d9d9d9"/>
    <path d="m204.800781 307.199219v-191.640625c0-25.273438 7.480469-49.976563 21.496094-71.007813l29.703125-44.550781 29.703125 44.550781c14.015625 21.03125 21.496094 45.734375 21.496094 71.007813v191.640625z" fill="#d9d9d9"/>
    <path d="m418.132812 298.667969h-2.210937l.101563-62.347657 2.109374.105469 42.667969-65.757812v-68.269531h42.664063v196.269531zm0 0" fill="#cdcdcd"/>
    <path d="m93.867188 298.667969h4.265624l.800782-62.671875-5.03125.324218-42.703125-65.652343v-68.269531h-42.664063v196.269531zm0 0" fill="#cdcdcd"/>
    <path d="m256 145.066406-25.601562 59.734375v25.597657l17.066406 34.132812h17.070312l17.066406-34.132812v-25.597657zm0 0" fill="#8aced8"/>
    <path d="m503.464844 332.800781h-34.132813v-76.800781l34.132813-42.667969zm0 0" fill="#dd3e46"/>
    <path d="m469.332031 298.667969h-162.132812v110.933593h51.199219l35.277343-49.382812c4.855469-6.800781 11.300781-12.304688 18.773438-16.035156l56.882812-28.449219zm0 0" fill="#b9b9b9"/>
    <path d="m486.398438 358.398438c9.425781 0 17.066406 7.640624 17.066406 17.066406v17.066406h-34.132813v-17.066406c0-9.425782 7.640625-17.066406 17.066407-17.066406zm0 0" fill="#b9b9b9"/>
    <path d="m93.867188 298.667969h68.265624v-85.335938h-8.53125l-59.734374 22.972657zm0 0" fill="#dd3e46"/>
    <path d="m418.132812 298.667969h-68.265624v-85.335938h8.53125l59.734374 22.972657zm0 0" fill="#dd3e46"/>
    <path d="m8.535156 332.800781h34.132813v-76.800781l-34.132813-42.667969zm0 0" fill="#dd3e46"/>
    <path d="m42.667969 298.667969h162.132812v110.933593h-51.199219l-35.277343-49.382812c-4.855469-6.800781-11.300781-12.304688-18.773438-16.035156l-56.882812-28.449219zm0 0" fill="#b9b9b9"/>
    <path d="m42.667969 392.53125h-34.132813v-17.066406c0-9.425782 7.640625-17.066406 17.066406-17.066406 9.425782 0 17.066407 7.640624 17.066407 17.066406zm0 0" fill="#b9b9b9"/>
    <path d="m285.703125 44.550781-29.703125-44.550781-29.703125 44.550781c-14.015625 21.03125-21.496094 45.734375-21.496094 71.007813v12.441406l34.132813-42.667969 17.066406 25.601563 17.066406-25.601563 34.132813 42.667969v-12.441406c0-25.273438-7.480469-49.976563-21.496094-71.007813zm0 0" fill="#69b0bb"/>
    <path d="m256 264.53125-51.199219 42.667969v12.058593l18.0625 12.039063c20.066407 13.378906 46.207031 13.378906 66.269531 0l18.066407-12.039063v-12.058593zm0 0" fill="#b9b9b9"/>
    <path d="m153.601562 375.464844h51.199219v34.136718h-51.199219zm0 0" fill="#69b0bb"/>
    <path d="m307.199219 375.464844h51.199219v34.136718h-51.199219zm0 0" fill="#69b0bb"/>
    <path d="m204.800781 375.464844h-51.199219v-162.132813l51.199219-17.066406zm0 0" fill="#cdcdcd"/>
    <path d="m307.199219 375.464844h51.199219v-162.132813l-51.199219-17.066406zm0 0" fill="#cdcdcd"/>
</svg>